<mxfile host="app.diagrams.net" modified="2023-04-15T10:45:32.968Z" agent="Mozilla/5.0 (Macintosh; Intel Mac OS X 10_15_7) AppleWebKit/537.36 (KHTML, like Gecko) Chrome/107.0.0.0 Safari/537.36" etag="_fMV6fI2d1SLVtE6LUVN" version="21.1.1" type="github">
  <diagram name="Page-1" id="xxTtLPzP3NoN20lFNYKP">
    <mxGraphModel dx="1026" dy="691" grid="1" gridSize="10" guides="1" tooltips="1" connect="1" arrows="1" fold="1" page="1" pageScale="1" pageWidth="850" pageHeight="1100" math="0" shadow="0">
      <root>
        <mxCell id="0" />
        <mxCell id="1" parent="0" />
        <mxCell id="fHfLor_2rr-YvmljPEO6-12" style="edgeStyle=orthogonalEdgeStyle;rounded=0;orthogonalLoop=1;jettySize=auto;html=1;entryX=0;entryY=0.5;entryDx=0;entryDy=0;" edge="1" parent="1" source="fHfLor_2rr-YvmljPEO6-2" target="fHfLor_2rr-YvmljPEO6-5">
          <mxGeometry relative="1" as="geometry" />
        </mxCell>
        <mxCell id="fHfLor_2rr-YvmljPEO6-2" value="" style="rounded=0;whiteSpace=wrap;html=1;" vertex="1" parent="1">
          <mxGeometry x="80" y="320" width="40" height="120" as="geometry" />
        </mxCell>
        <mxCell id="fHfLor_2rr-YvmljPEO6-1" value="" style="rounded=0;whiteSpace=wrap;html=1;" vertex="1" parent="1">
          <mxGeometry x="90" y="390" width="20" height="130" as="geometry" />
        </mxCell>
        <mxCell id="fHfLor_2rr-YvmljPEO6-3" value="V" style="rounded=0;whiteSpace=wrap;html=1;" vertex="1" parent="1">
          <mxGeometry x="440" y="320" width="80" height="60" as="geometry" />
        </mxCell>
        <mxCell id="fHfLor_2rr-YvmljPEO6-4" value="P" style="rounded=0;whiteSpace=wrap;html=1;" vertex="1" parent="1">
          <mxGeometry x="440" y="380" width="80" height="60" as="geometry" />
        </mxCell>
        <mxCell id="fHfLor_2rr-YvmljPEO6-13" style="edgeStyle=orthogonalEdgeStyle;rounded=0;orthogonalLoop=1;jettySize=auto;html=1;" edge="1" parent="1" source="fHfLor_2rr-YvmljPEO6-5" target="fHfLor_2rr-YvmljPEO6-3">
          <mxGeometry relative="1" as="geometry" />
        </mxCell>
        <mxCell id="fHfLor_2rr-YvmljPEO6-5" value="V" style="rounded=0;whiteSpace=wrap;html=1;" vertex="1" parent="1">
          <mxGeometry x="160" y="320" width="240" height="40" as="geometry" />
        </mxCell>
        <mxCell id="fHfLor_2rr-YvmljPEO6-6" value="F" style="text;html=1;align=center;verticalAlign=middle;resizable=0;points=[];autosize=1;strokeColor=none;fillColor=none;" vertex="1" parent="1">
          <mxGeometry x="85" y="490" width="30" height="30" as="geometry" />
        </mxCell>
        <mxCell id="fHfLor_2rr-YvmljPEO6-7" value="P" style="text;html=1;align=center;verticalAlign=middle;resizable=0;points=[];autosize=1;strokeColor=none;fillColor=none;" vertex="1" parent="1">
          <mxGeometry x="85" y="390" width="30" height="30" as="geometry" />
        </mxCell>
        <mxCell id="fHfLor_2rr-YvmljPEO6-8" value="V" style="text;html=1;align=center;verticalAlign=middle;resizable=0;points=[];autosize=1;strokeColor=none;fillColor=none;" vertex="1" parent="1">
          <mxGeometry x="85" y="335" width="30" height="30" as="geometry" />
        </mxCell>
        <mxCell id="fHfLor_2rr-YvmljPEO6-9" value="Piston" style="text;html=1;strokeColor=none;fillColor=none;align=center;verticalAlign=middle;whiteSpace=wrap;rounded=0;" vertex="1" parent="1">
          <mxGeometry x="70" y="530" width="60" height="30" as="geometry" />
        </mxCell>
        <mxCell id="fHfLor_2rr-YvmljPEO6-10" value="Accumilator" style="text;html=1;strokeColor=none;fillColor=none;align=center;verticalAlign=middle;whiteSpace=wrap;rounded=0;" vertex="1" parent="1">
          <mxGeometry x="450" y="450" width="60" height="30" as="geometry" />
        </mxCell>
        <mxCell id="fHfLor_2rr-YvmljPEO6-11" value="Gallary" style="text;html=1;strokeColor=none;fillColor=none;align=center;verticalAlign=middle;whiteSpace=wrap;rounded=0;" vertex="1" parent="1">
          <mxGeometry x="250" y="290" width="60" height="30" as="geometry" />
        </mxCell>
        <mxCell id="fHfLor_2rr-YvmljPEO6-15" value="SystemVol = PistVol + GalVol + AccumVol = Fixed" style="text;html=1;align=center;verticalAlign=middle;resizable=0;points=[];autosize=1;strokeColor=none;fillColor=none;" vertex="1" parent="1">
          <mxGeometry x="80" y="90" width="290" height="30" as="geometry" />
        </mxCell>
      </root>
    </mxGraphModel>
  </diagram>
</mxfile>
